<?xml version="1.0" encoding="utf-8"?>
<!-- Generator: Adobe Illustrator 25.2.3, SVG Export Plug-In . SVG Version: 6.00 Build 0)  -->
<svg version="1.1" id="Layer_1" xmlns="http://www.w3.org/2000/svg" xmlns:xlink="http://www.w3.org/1999/xlink" x="0px" y="0px"
	 viewBox="0 0 408.52 211.3" style="enable-background:new 0 0 408.52 211.3;" xml:space="preserve">
<style type="text/css">
	.st0{fill:#706F71;}
</style>
<path class="st0" d="M129.26,131.35v-14.74c0,0-12.22-7.22-48.57-7.22c0,0-60.7,3.3-69.91,35.13c0,0-5.22,33.74,73.22,38.43
	c0,0,20.7,1.74,46.09-4.87v-15.83c0,0-25.57,11.65-66.78,4c0,0-34.43-8.84-35.48-19.98c0,0-3.3-10.28,32.52-19.32
	C60.35,126.96,95.04,117.65,129.26,131.35z"/>
<path class="st0" d="M171.13,157.57c0,0-0.36-1.5,0.2-2.48c0,0,8.15-16.7,12.07-43.83c0,0,6.52-26.22-0.52-58.83
	c0,0-7.3-28.96-13.57-36.26c0,0-6.43-10.26-13.48,0.7c0,0-9.61,17.96-11.7,37.52c0,0-6.39,29.09-1.04,56.48
	c0,0,5.09,29.09,11.74,44.28c0,0,0.7,1.02,0.39,2.89l-20.87,38.52h17.87l10.57-21.39h0.91l9.7,21.39h17.65L171.13,157.57z
	 M170.52,84.43c-1.65,42.96-7.83,47.43-7.83,47.43c-6.87-13.17-7.35-47.22-7.35-47.22c-1.04-23.48,7.35-46.17,7.35-46.17
	C170.96,51.39,170.52,84.43,170.52,84.43z"/>
<path class="st0" d="M255.39,86.87l13.9,0c0.29,1.22,3.39,38.52-0.6,56.8c0,0-1.45,10.46-4.52,20.67
	c-1.95,6.48-4.97,12.72-7.35,16.57c0,0-6.13,13.96-19.3,13.96c0,0-11.09,0.65-19.04-13.3c0,0-11.35-18.13-14.35-40.69
	c0,0-5.09-29.74,0-54l14.22,0c0.12,0,0.21,0.11,0.17,0.23c-1.02,3.31-2.83,24.16-2.7,35.45c0.06,5.37,0.63,10.72,1.7,15.99
	c1.22,5.99,3.22,14.73,5.58,20.61c0.12,0.29,1.69,4.13,1.8,4.41c1.54,3.8,12.63,29.97,25.01-1.17c2.78-7,2.9-8.67,3-9
	c0.59-1.96,1.39-4.73,3.24-22.13c0.09-0.88,0.2-1.77,0.3-2.66C256.79,125.67,257.7,114.16,255.39,86.87
	C255.39,86.87,255.39,86.87,255.39,86.87z"/>
<path class="st0" d="M394.83,131.87V117.2c0,0-13.3-5.93-38.48-7.37c0,0-25.7-0.91-44.74,7.7c0,0-28.04,8.48-31.83,27.65
	c0,0-3.26,14.87,21.39,26.22c0,0,19.7,11.74,48.57,12.09c0,0,24.74,1.74,45.09-5.17v-14.74c0,0-19.3,6.26-41.87,5.74
	c0,0-23.91-0.87-35.3-5.91c0,0-14.78-5.74-16.09-9.3l59.04-0.43v-16l-58.87,0.7c0,0,12.52-9.57,33.65-12.87
	c0,0,21.65-4.61,38.26,0.26C373.65,125.74,389.39,129.57,394.83,131.87z"/>
</svg>
